# Blender v3.2.0 OBJ File: '17 Globe.blend'
# www.blender.org
mtllib Drawer.mtl
o Cube_Cube.012
v -1.000000 0.426653 1.000000
v -1.000000 1.125323 1.000000
v -1.000000 0.426653 -1.000000
v -1.000000 1.125323 -1.000000
v 1.000000 0.499774 0.917232
v 1.000000 1.052202 0.917232
v 1.000000 0.499774 -0.917232
v 1.000000 1.052202 -0.917232
v 1.000000 1.125323 -1.000000
v 1.000000 0.426653 -1.000000
v 1.000000 0.426653 1.000000
v 1.000000 1.125323 1.000000
v 0.917968 1.052202 -0.917232
v 0.917968 0.499774 -0.917232
v 0.917968 0.499774 0.917232
v 0.917968 1.052202 0.917232
v 1.002795 1.031843 -0.888381
v 1.002795 0.520132 -0.888381
v 1.002795 0.520132 0.888381
v 1.002795 1.031843 0.888381
v 0.978190 0.725170 0.050818
v 0.978190 0.826806 0.050818
v 0.978190 0.725170 -0.050818
v 0.978190 0.826806 -0.050818
v 1.129378 0.705635 0.070353
v 1.129378 0.846341 0.070353
v 1.129378 0.705635 -0.070353
v 1.129378 0.846341 -0.070353
vt 0.375000 0.000000
vt 0.625000 0.000000
vt 0.625000 0.250000
vt 0.375000 0.250000
vt 0.625000 0.500000
vt 0.375000 0.500000
vt 0.598836 0.723836
vt 0.401164 0.723836
vt 0.401164 0.723836
vt 0.598836 0.723836
vt 0.375000 0.750000
vt 0.625000 0.750000
vt 0.625000 1.000000
vt 0.375000 1.000000
vt 0.125000 0.500000
vt 0.125000 0.750000
vt 0.875000 0.500000
vt 0.875000 0.750000
vt 0.598836 0.526164
vt 0.401164 0.526164
vt 0.401164 0.723836
vt 0.598836 0.723836
vt 0.401164 0.526164
vt 0.598836 0.526164
vt 0.401164 0.526164
vt 0.598836 0.526164
vt 0.375000 0.000000
vt 0.625000 0.000000
vt 0.625000 0.250000
vt 0.375000 0.250000
vt 0.625000 0.500000
vt 0.375000 0.500000
vt 0.625000 0.750000
vt 0.375000 0.750000
vt 0.625000 1.000000
vt 0.375000 1.000000
vt 0.125000 0.500000
vt 0.125000 0.750000
vt 0.875000 0.500000
vt 0.875000 0.750000
vn -1.0000 0.0000 0.0000
vn 0.0000 0.0000 -1.0000
vn 0.0000 0.0000 1.0000
vn 0.0000 -1.0000 0.0000
vn 0.0000 1.0000 0.0000
vn 1.0000 0.0000 0.0000
vn 0.3220 0.0000 0.9467
vn 0.2334 -0.9724 0.0000
vn 0.2334 0.9724 0.0000
vn 0.3220 0.0000 -0.9467
vn -0.1281 0.0000 -0.9918
vn -0.1281 0.0000 0.9918
vn -0.1281 -0.9918 0.0000
vn -0.1281 0.9918 0.0000
usemtl None
s off
f 1/1/1 2/2/1 4/3/1 3/4/1
f 3/4/2 4/3/2 9/5/2 10/6/2
f 6/7/2 5/8/2 15/9/2 16/10/2
f 11/11/3 12/12/3 2/13/3 1/14/3
f 3/15/4 10/6/4 11/11/4 1/16/4
f 9/5/5 4/17/5 2/18/5 12/12/5
f 8/19/6 7/20/6 10/6/6 9/5/6
f 7/20/6 5/8/6 11/11/6 10/6/6
f 6/7/6 8/19/6 9/5/6 12/12/6
f 5/8/6 6/7/6 12/12/6 11/11/6
f 16/10/7 15/9/7 19/21/7 20/22/7
f 5/8/5 7/20/5 14/23/5 15/9/5
f 8/19/4 6/7/4 16/10/4 13/24/4
f 7/20/3 8/19/3 13/24/3 14/23/3
f 18/25/6 17/26/6 20/22/6 19/21/6
f 15/9/8 14/23/8 18/25/8 19/21/8
f 13/24/9 16/10/9 20/22/9 17/26/9
f 14/23/10 13/24/10 17/26/10 18/25/10
f 21/27/1 22/28/1 24/29/1 23/30/1
f 23/30/11 24/29/11 28/31/11 27/32/11
f 27/32/6 28/31/6 26/33/6 25/34/6
f 25/34/12 26/33/12 22/35/12 21/36/12
f 23/37/13 27/32/13 25/34/13 21/38/13
f 28/31/14 24/39/14 22/40/14 26/33/14
o Cube.001_Cube.013
v -0.530155 0.560804 0.606241
v -0.997358 -1.062713 1.027848
v -0.548793 0.503340 0.348875
v -0.997383 -1.063263 0.902451
v -0.278691 0.479243 0.606241
v -0.872086 -1.068324 1.027848
v -0.297329 0.421780 0.348875
v -0.872111 -1.068874 0.902451
v -0.530155 0.560804 -0.606240
v -0.997358 -1.062713 -1.027848
v -0.548793 0.503340 -0.348875
v -0.997383 -1.063263 -0.902451
v -0.278691 0.479243 -0.606240
v -0.872086 -1.068324 -1.027848
v -0.297329 0.421780 -0.348875
v -0.872111 -1.068874 -0.902451
v 0.520527 0.630230 0.173557
v 0.942135 -1.088375 0.104076
v 0.263162 0.569819 0.173557
v 0.816738 -1.088927 0.104076
v 0.520527 0.630230 -0.090803
v 0.942135 -1.088375 -0.021322
v 0.263162 0.569819 -0.090803
v 0.816738 -1.088927 -0.021322
vt 0.375000 0.000000
vt 0.375000 0.250000
vt 0.625000 0.250000
vt 0.625000 0.000000
vt 0.375000 0.500000
vt 0.625000 0.500000
vt 0.375000 0.750000
vt 0.625000 0.750000
vt 0.375000 1.000000
vt 0.625000 1.000000
vt 0.125000 0.500000
vt 0.125000 0.750000
vt 0.875000 0.750000
vt 0.875000 0.500000
vt 0.375000 0.000000
vt 0.625000 0.000000
vt 0.625000 0.250000
vt 0.375000 0.250000
vt 0.625000 0.500000
vt 0.375000 0.500000
vt 0.625000 0.750000
vt 0.375000 0.750000
vt 0.625000 1.000000
vt 0.375000 1.000000
vt 0.125000 0.500000
vt 0.125000 0.750000
vt 0.875000 0.500000
vt 0.875000 0.750000
vt 0.375000 0.000000
vt 0.375000 0.250000
vt 0.625000 0.250000
vt 0.625000 0.000000
vt 0.375000 0.500000
vt 0.625000 0.500000
vt 0.375000 0.750000
vt 0.625000 0.750000
vt 0.375000 1.000000
vt 0.625000 1.000000
vt 0.125000 0.500000
vt 0.125000 0.750000
vt 0.875000 0.750000
vt 0.875000 0.500000
vn -0.9608 0.2773 0.0048
vn -0.0735 -0.3177 -0.9453
vn 0.9343 -0.3565 0.0085
vn 0.0554 0.2392 0.9694
vn 0.3004 0.9260 -0.2285
vn -0.0447 -0.9990 0.0044
vn -0.9608 0.2773 -0.0048
vn -0.0735 -0.3177 0.9453
vn 0.9343 -0.3565 -0.0085
vn 0.0554 0.2392 -0.9694
vn 0.3004 0.9260 0.2285
vn -0.0447 -0.9990 -0.0044
vn 0.0063 -0.0393 0.9992
vn -0.9486 -0.3166 0.0000
vn 0.0063 -0.0393 -0.9992
vn 0.9712 0.2383 -0.0000
vn -0.2285 0.9735 0.0000
vn 0.0044 -1.0000 0.0000
usemtl None
s off
f 29/41/15 31/42/15 32/43/15 30/44/15
f 31/42/16 35/45/16 36/46/16 32/43/16
f 35/45/17 33/47/17 34/48/17 36/46/17
f 33/47/18 29/49/18 30/50/18 34/48/18
f 31/51/19 29/52/19 33/47/19 35/45/19
f 36/46/20 34/48/20 30/53/20 32/54/20
f 37/55/21 38/56/21 40/57/21 39/58/21
f 39/58/22 40/57/22 44/59/22 43/60/22
f 43/60/23 44/59/23 42/61/23 41/62/23
f 41/62/24 42/61/24 38/63/24 37/64/24
f 39/65/25 43/60/25 41/62/25 37/66/25
f 44/59/26 40/67/26 38/68/26 42/61/26
f 45/69/27 47/70/27 48/71/27 46/72/27
f 47/70/28 51/73/28 52/74/28 48/71/28
f 51/73/29 49/75/29 50/76/29 52/74/29
f 49/75/30 45/77/30 46/78/30 50/76/30
f 47/79/31 45/80/31 49/75/31 51/73/31
f 52/74/32 50/76/32 46/81/32 48/82/32
